<svg xmlns="http://www.w3.org/2000/svg" viewBox="0 0 20 20" width="1em" height="1em"><path fill-rule="evenodd" clip-rule="evenodd" d="M4.75 3a.75.75 0 01.75.75v1.354a2.751 2.751 0 010 5.292v5.854a.75.75 0 01-1.5 0v-5.854a2.751 2.751 0 010-5.292V3.75A.75.75 0 014.75 3zm0 3.5a1.25 1.25 0 100 2.5 1.25 1.25 0 000-2.5zM10 3a.75.75 0 01.75.75v5.604a2.751 2.751 0 010 5.293v1.603a.75.75 0 01-1.5 0v-1.604a2.751 2.751 0 010-5.292V3.75A.75.75 0 0110 3zm-1.25 9a1.25 1.25 0 112.5 0 1.25 1.25 0 01-2.5 0zM16 3.75a.75.75 0 00-1.5 0v1.354a2.751 2.751 0 000 5.292v5.854a.75.75 0 001.5 0v-5.854a2.751 2.751 0 000-5.292V3.75zm-.75 2.75a1.25 1.25 0 100 2.5 1.25 1.25 0 000-2.5z"/></svg>