<svg xmlns="http://www.w3.org/2000/svg" viewBox="0 0 20 20" width="1em" height="1em"><path fill-rule="evenodd" clip-rule="evenodd" d="M2 4a2 2 0 012-2h4a2 2 0 012 2v.342l.239-.238a2 2 0 012.828 0l2.829 2.828a2 2 0 010 2.828l-.24.24H16a2 2 0 012 2v4a2 2 0 01-2 2H6.153a3.99 3.99 0 01-2.985-1.169A3.99 3.99 0 012 13.828V4zm8 9.535L14.835 8.7a.5.5 0 000-.707l-2.828-2.829a.5.5 0 00-.707 0l-1.3 1.3v7.07zM7.25 14a1.25 1.25 0 11-2.5 0 1.25 1.25 0 012.5 0zm1.906 2.5l5-5H16a.5.5 0 01.5.5v4a.5.5 0 01-.5.5H9.156z"/></svg>