<svg xmlns="http://www.w3.org/2000/svg" viewBox="0 0 20 20" width="1em" height="1em"><path fill-rule="evenodd" clip-rule="evenodd" d="M5.5 14.5h-.75A2.75 2.75 0 012 11.75v-7A2.75 2.75 0 014.75 2h7a2.75 2.75 0 012.75 2.75v.75h.75A2.75 2.75 0 0118 8.25v7A2.75 2.75 0 0115.25 18h-7a2.75 2.75 0 01-2.75-2.75v-.75zm-2-9.75c0-.69.56-1.25 1.25-1.25h7c.69 0 1.25.56 1.25 1.25v.75H8.25A2.75 2.75 0 005.5 8.25V13h-.75c-.69 0-1.25-.56-1.25-1.25v-7zM7 8.25C7 7.56 7.56 7 8.25 7h7c.69 0 1.25.56 1.25 1.25v7c0 .69-.56 1.25-1.25 1.25h-7c-.69 0-1.25-.56-1.25-1.25v-7z"/></svg>