<svg xmlns="http://www.w3.org/2000/svg" viewBox="0 0 20 20" width="1em" height="1em"><path fill-rule="evenodd" clip-rule="evenodd" d="M8.25 3.524V5h3.5V3.524a.143.143 0 00-.083-.024H8.333a.143.143 0 00-.083.024zm5 1.476V3.5c0-.425-.188-.814-.492-1.088A1.632 1.632 0 0011.667 2H8.333c-.396 0-.79.14-1.09.412A1.464 1.464 0 006.75 3.5V5h-3a.75.75 0 000 1.5h.271l.395 8.872A2.75 2.75 0 007.163 18h5.674a2.75 2.75 0 002.747-2.628L15.98 6.5h.271a.75.75 0 000-1.5h-3zM5.523 6.5l.391 8.806a1.25 1.25 0 001.25 1.194h5.673a1.25 1.25 0 001.249-1.194l.391-8.806H5.523zm2.727 2a.75.75 0 01.75.75v4.25a.75.75 0 01-1.5 0V9.25a.75.75 0 01.75-.75zm3.5 0a.75.75 0 01.75.75v4.25a.75.75 0 01-1.5 0V9.25a.75.75 0 01.75-.75z"/></svg>