<svg xmlns="http://www.w3.org/2000/svg" viewBox="0 0 20 20" width="1em" height="1em"><path fill-rule="evenodd" clip-rule="evenodd" d="M8.254 2.43A3.679 3.679 0 019.98 2c.634 0 1.256.164 1.807.471 1.092.608 3.298 1.822 5.064 2.703A2.066 2.066 0 0118 7.02c0 .755-.417 1.45-1.085 1.804l-5.153 2.738a3.76 3.76 0 01-3.524 0L3.102 8.833a2.076 2.076 0 010-3.666L8.254 2.43zM9.98 3.5c-.357 0-.708.087-1.023.255L3.806 6.492a.576.576 0 000 1.016l5.136 2.729a2.26 2.26 0 002.116 0l5.154-2.738a.543.543 0 00.288-.48.566.566 0 00-.318-.503c-1.8-.897-4.031-2.126-5.125-2.734A2.215 2.215 0 009.98 3.5z"/><path d="M2.088 10.445a.75.75 0 011.014-.31l5.84 3.102a2.26 2.26 0 002.116 0l5.84-3.102a.75.75 0 11.704 1.324l-5.84 3.103a3.76 3.76 0 01-3.524 0l-5.84-3.103a.75.75 0 01-.31-1.014z"/><path d="M3.102 13.135a.75.75 0 10-.704 1.324l5.84 3.103a3.76 3.76 0 003.524 0l5.84-3.103a.75.75 0 10-.704-1.324l-5.84 3.102a2.26 2.26 0 01-2.116 0l-5.84-3.102z"/></svg>