<svg xmlns="http://www.w3.org/2000/svg" viewBox="0 0 20 20" width="1em" height="1em"><path d="M16.77 5.158c-1.238-1.047-2.724-1.57-4.293-1.658l-.248.262c1.404.349 2.643 1.047 3.799 2.007a12.08 12.08 0 00-4.624-1.484c-.496-.087-.909-.087-1.404-.087-.495 0-.908 0-1.404.087A12.08 12.08 0 003.972 5.77c1.156-.96 2.395-1.658 3.799-2.007L7.523 3.5c-1.569.087-3.055.61-4.294 1.658C1.826 7.951 1.083 11.093 1 14.322c1.239 1.396 2.972 2.269 4.789 2.269 0 0 .578-.698.99-1.31-1.073-.261-2.063-.872-2.724-1.832.578.35 1.156.698 1.734.96.743.35 1.486.524 2.23.698.66.088 1.32.175 1.981.175.66 0 1.321-.088 1.982-.175.743-.174 1.486-.349 2.229-.698.578-.262 1.156-.61 1.734-.96-.66.96-1.651 1.571-2.725 1.833.413.61.991 1.309.991 1.309 1.816 0 3.55-.873 4.789-2.27-.083-3.228-.826-6.37-2.23-9.163zm-9.495 7.593c-.825 0-1.569-.785-1.569-1.745 0-.96.744-1.746 1.57-1.746.825 0 1.568.786 1.568 1.745 0 .96-.743 1.746-1.569 1.746zm5.45 0c-.826 0-1.569-.785-1.569-1.745 0-.96.743-1.746 1.569-1.746.825 0 1.569.786 1.569 1.745 0 .96-.744 1.746-1.57 1.746z"/></svg>