<svg xmlns="http://www.w3.org/2000/svg" viewBox="0 0 20 20" width="1em" height="1em"><path d="M11.042 2.09a4.902 4.902 0 00-1.847-.005 4.84 4.84 0 00-1.713.68 4.641 4.641 0 00-1.88 2.36c-.727.08-1.42.36-2.006.814A4.13 4.13 0 002.11 8.268a4.2 4.2 0 00.296 2.756 4.077 4.077 0 001.95 1.946.75.75 0 00.636-1.36 2.577 2.577 0 01-1.232-1.23 2.7 2.7 0 01-.19-1.772 2.63 2.63 0 01.945-1.483 2.48 2.48 0 011.627-.522.75.75 0 00.767-.596 3.118 3.118 0 011.383-1.98 3.34 3.34 0 011.181-.468c.424-.08.86-.079 1.282.004.423.082.823.244 1.179.475.355.23.658.525.893.866.235.342.396.722.477 1.121.081.399.08.809-.004 1.207a.75.75 0 00.734.904h.715c.447 0 .887.19 1.22.547.335.359.531.856.531 1.385s-.196 1.026-.531 1.385a1.669 1.669 0 01-1.22.547.75.75 0 000 1.5c.88 0 1.712-.375 2.317-1.024A3.534 3.534 0 0018 10.068c0-.894-.33-1.76-.934-2.408a3.174 3.174 0 00-2.202-1.022 4.546 4.546 0 00-.801-2.584A4.692 4.692 0 0012.75 2.78a4.839 4.839 0 00-1.708-.69z"/><path d="M10.75 9.25a.75.75 0 00-1.5 0v6.316l-1.248-1.123a.75.75 0 10-1.004 1.114l2.5 2.25a.75.75 0 001.004 0l2.5-2.25a.75.75 0 10-1.004-1.114l-1.248 1.123V9.25z"/></svg>