<svg xmlns="http://www.w3.org/2000/svg" viewBox="0 0 20 20" width="1em" height="1em"><path d="M7.5 8a.75.75 0 00-.75.75v1.5a.75.75 0 001.5 0V9.5h1V13h-.5a.75.75 0 000 1.5h2.5a.75.75 0 000-1.5h-.5V9.5h1v.75a.75.75 0 001.5 0v-1.5A.75.75 0 0012.5 8h-5z"/><path fill-rule="evenodd" clip-rule="evenodd" d="M3 4v12a2 2 0 002 2h10a2 2 0 002-2V6.914a1 1 0 00-.293-.707l-3.914-3.914A1 1 0 0012.086 2H5a2 2 0 00-2 2zm1.5 0v12a.5.5 0 00.5.5h10a.5.5 0 00.5-.5V7.25h-1.75a2 2 0 01-2-2V3.5H5a.5.5 0 00-.5.5z"/></svg>