<svg xmlns="http://www.w3.org/2000/svg" viewBox="0 0 20 20" width="1em" height="1em"><path fill-rule="evenodd" clip-rule="evenodd" d="M2 5.75A2.75 2.75 0 014.75 3h2.836c.464 0 .909.184 1.237.513l1.414 1.414a.25.25 0 00.177.073h4.836A2.75 2.75 0 0118 7.75v6.5A2.75 2.75 0 0115.25 17H4.75A2.75 2.75 0 012 14.25v-8.5zM4.75 4.5c-.69 0-1.25.56-1.25 1.25v8.5c0 .69.56 1.25 1.25 1.25h10.5c.69 0 1.25-.56 1.25-1.25v-6.5c0-.69-.56-1.25-1.25-1.25h-4.836a1.75 1.75 0 01-1.237-.513L7.763 4.573a.25.25 0 00-.177-.073H4.75z"/></svg>