<svg xmlns="http://www.w3.org/2000/svg" viewBox="0 0 20 20" width="1em" height="1em"><path d="M12 6.25v-1.5h-1.5v1.5H12zM12 7.75v-1.5h1.5v1.5H12zM12 9.25h-1.5v-1.5H12v1.5zM12 10.75h-1.5v1.5H12v1.5h-1.5v1.5H12v-1.5h1.5v-1.5H12v-1.5zM12 10.75h1.5v-1.5H12v1.5z"/><path fill-rule="evenodd" clip-rule="evenodd" d="M16 2H4a2 2 0 00-2 2v12a2 2 0 002 2h12a2 2 0 002-2V4a2 2 0 00-2-2zm-4 1.5h-1.5v1.25H9v1.5h1.5v1.5H9v1.5h1.5v1.5H9v1.5h1.5v1.5H9v1.5h1.5v1.25H12v-1.25h1.5v1.25H16a.5.5 0 00.5-.5V4a.5.5 0 00-.5-.5h-2.5v1.25H12V3.5z"/></svg>