<svg xmlns="http://www.w3.org/2000/svg" viewBox="0 0 20 20" width="1em" height="1em"><path fill-rule="evenodd" clip-rule="evenodd" d="M3 5a2 2 0 012-2h3.25a1 1 0 011 1v4.25a1 1 0 01-1 1H4a1 1 0 01-1-1V5zm2-.5h2.75v3.25H4.5V5a.5.5 0 01.5-.5zM3 11.75a1 1 0 011-1h4.25a1 1 0 011 1V16a1 1 0 01-1 1H5a2 2 0 01-2-2v-3.25zM4.5 15v-2.75h3.25v3.25H5a.5.5 0 01-.5-.5zM11.75 10.75a1 1 0 00-1 1V16a1 1 0 001 1H15a2 2 0 002-2v-3.25a1 1 0 00-1-1h-4.25zm.5 1.5v3.25H15a.5.5 0 00.5-.5v-2.75h-3.25zM10.75 4a1 1 0 011-1H15a2 2 0 012 2v3.25a1 1 0 01-1 1h-4.25a1 1 0 01-1-1V4zm1.5 3.75V4.5H15a.5.5 0 01.5.5v2.75h-3.25z"/></svg>