<svg xmlns="http://www.w3.org/2000/svg" viewBox="0 0 20 20" width="1em" height="1em"><path d="M10 10.75a.75.75 0 100-1.5.75.75 0 000 1.5zM10 16.25a.75.75 0 100-1.5.75.75 0 000 1.5zM10 5.25a.75.75 0 100-1.5.75.75 0 000 1.5zM15.5 10.75a.75.75 0 100-1.5.75.75 0 000 1.5zM15.5 16.25a.75.75 0 100-1.5.75.75 0 000 1.5zM15.5 5.25a.75.75 0 100-1.5.75.75 0 000 1.5zM4.5 10.75a.75.75 0 100-1.5.75.75 0 000 1.5zM4.5 16.25a.75.75 0 100-1.5.75.75 0 000 1.5zM4.5 5.25a.75.75 0 100-1.5.75.75 0 000 1.5z"/><path d="M10 10.75a.75.75 0 100-1.5.75.75 0 000 1.5zM10 16.25a.75.75 0 100-1.5.75.75 0 000 1.5zM10 5.25a.75.75 0 100-1.5.75.75 0 000 1.5zM15.5 10.75a.75.75 0 100-1.5.75.75 0 000 1.5zM15.5 16.25a.75.75 0 100-1.5.75.75 0 000 1.5zM15.5 5.25a.75.75 0 100-1.5.75.75 0 000 1.5zM4.5 10.75a.75.75 0 100-1.5.75.75 0 000 1.5zM4.5 16.25a.75.75 0 100-1.5.75.75 0 000 1.5zM4.5 5.25a.75.75 0 100-1.5.75.75 0 000 1.5z" stroke-width="1.5" stroke-linecap="round" stroke-linejoin="round"/></svg>