<svg xmlns="http://www.w3.org/2000/svg" viewBox="0 0 20 20" width="1em" height="1em"><path fill-rule="evenodd" clip-rule="evenodd" d="M9.823 4.166a4.25 4.25 0 116.01 6.01l-1.59 1.592a4.25 4.25 0 01-6.01 0l-.178-.177a.75.75 0 011.061-1.06l.177.176a2.75 2.75 0 003.889 0l1.591-1.59a2.75 2.75 0 00-3.89-3.89l-.176.177a.75.75 0 11-1.06-1.06l.176-.178zM5.757 8.232a4.25 4.25 0 016.01 0l.178.177a.75.75 0 01-1.061 1.06l-.177-.176a2.75 2.75 0 00-3.889 0l-1.591 1.59a2.75 2.75 0 103.89 3.89l.176-.177a.75.75 0 011.06 1.06l-.176.178a4.25 4.25 0 11-6.01-6.01l1.59-1.592z"/></svg>