<svg xmlns="http://www.w3.org/2000/svg" viewBox="0 0 20 20" width="1em" height="1em"><path fill-rule="evenodd" clip-rule="evenodd" d="M2 4a2 2 0 012-2h12a2 2 0 012 2v4a2 2 0 01-2 2h-6v6a2 2 0 01-2 2H4a2 2 0 01-2-2V4zm4.5-.5V5A.75.75 0 008 5V3.5h1.75V6a.75.75 0 001.5 0V3.5H13V5a.75.75 0 001.5 0V3.5H16a.5.5 0 01.5.5v4a.5.5 0 01-.5.5h-6A1.5 1.5 0 008.5 10v6a.5.5 0 01-.5.5H4a.5.5 0 01-.5-.5v-1.5H5A.75.75 0 005 13H3.5v-1.75H6a.75.75 0 000-1.5H3.5V8H5a.75.75 0 000-1.5H3.5V4a.5.5 0 01.5-.5h2.5z"/></svg>