<svg xmlns="http://www.w3.org/2000/svg" viewBox="0 0 20 20" width="1em" height="1em"><path fill-rule="evenodd" clip-rule="evenodd" d="M17.848 11.561l-1.472-.29a6.534 6.534 0 000-2.541l1.472-.291a8.039 8.039 0 010 3.122zm-1.195-6.006l-1.247.835a6.544 6.544 0 00-1.796-1.796l.835-1.247a8.043 8.043 0 012.207 2.208zM11.56 2.152l-.29 1.472a6.54 6.54 0 00-2.541 0l-.291-1.472a8.04 8.04 0 013.122 0zM5.555 3.347l.835 1.247A6.544 6.544 0 004.594 6.39l-1.247-.835a8.044 8.044 0 012.208-2.208zM2.152 8.44a8.04 8.04 0 000 3.122l1.472-.29a6.54 6.54 0 010-2.541l-1.472-.291zm1.195 6.006l1.247-.835a6.544 6.544 0 001.796 1.796l-.835 1.246a8.043 8.043 0 01-2.208-2.207zm5.092 3.403l.29-1.472a6.534 6.534 0 002.541 0l.291 1.472a8.039 8.039 0 01-3.122 0zm6.006-1.195l-.835-1.247a6.544 6.544 0 001.796-1.796l1.246.835a8.042 8.042 0 01-2.207 2.207z"/></svg>