<svg xmlns="http://www.w3.org/2000/svg" viewBox="0 0 20 20" width="1em" height="1em"><path fill-rule="evenodd" clip-rule="evenodd" d="M10 2a8 8 0 100 16V2zm1.045.067a7.992 7.992 0 012.017.542l-.575 1.385a6.493 6.493 0 00-1.639-.44l.197-1.487zm3.825 1.586c.55.422 1.049.917 1.478 1.476l-1.19.913a6.494 6.494 0 00-1.2-1.199l.912-1.19zm2.857 4.276a8.073 8.073 0 00-.335-.99l-1.387.572a6.547 6.547 0 01.44 1.642l1.487-.198a8.061 8.061 0 00-.205-1.026zm.206 3.116a7.992 7.992 0 01-.542 2.017l-1.385-.575a6.493 6.493 0 00.44-1.639l1.487.197zm-3.062 5.303a7.99 7.99 0 001.476-1.478l-1.19-.912a6.49 6.49 0 01-1.2 1.2l.914 1.19zm-1.81 1.044a8.072 8.072 0 01-2.016.54l-.198-1.487a6.575 6.575 0 001.642-.44l.572 1.387z"/></svg>