<svg xmlns="http://www.w3.org/2000/svg" viewBox="0 0 20 20" width="1em" height="1em"><path fill-rule="evenodd" clip-rule="evenodd" d="M12.156 11.086a3 3 0 10-4.311 0 4.268 4.268 0 00-1.706 1.886.75.75 0 001.362.628 2.75 2.75 0 014.998 0 .75.75 0 101.362-.628 4.268 4.268 0 00-1.705-1.886zM10 10.5a1.5 1.5 0 100-3 1.5 1.5 0 000 3z"/><path fill-rule="evenodd" clip-rule="evenodd" d="M4 2a2 2 0 00-2 2v12a2 2 0 002 2h12a2 2 0 002-2V4a2 2 0 00-2-2H4zm12 1.5H4a.5.5 0 00-.5.5v12a.5.5 0 00.5.5h12a.5.5 0 00.5-.5V4a.5.5 0 00-.5-.5z"/></svg>