<svg xmlns="http://www.w3.org/2000/svg" viewBox="0 0 20 20" width="1em" height="1em"><path d="M14.457 2.156a.75.75 0 00-.914 1.188L15.045 4.5H5.75A2.75 2.75 0 003 7.25v2.5a.75.75 0 101.5 0v-2.5C4.5 6.56 5.06 6 5.75 6h9.295l-1.502 1.156a.75.75 0 00.914 1.188l3.25-2.5a.75.75 0 000-1.188l-3.25-2.5zM5.543 17.845a.75.75 0 00.914-1.19L4.955 15.5h9.295A2.75 2.75 0 0017 12.75v-2.5a.75.75 0 00-1.5 0v2.5c0 .69-.56 1.25-1.25 1.25H4.955l1.502-1.155a.75.75 0 00-.914-1.19l-3.25 2.5a.75.75 0 000 1.19l3.25 2.5z"/></svg>