<svg xmlns="http://www.w3.org/2000/svg" viewBox="0 0 20 20" width="1em" height="1em"><path d="M7.543 6.5h4.914a.5.5 0 01.336.87l-1.138 1.035A2 2 0 0011 9.885v.217a2 2 0 00.671 1.495l.908.806a2 2 0 01.671 1.495V14a1 1 0 01-1 1h-4.5a1 1 0 01-1-1v-.102a2 2 0 01.671-1.495l.908-.806A2 2 0 009 10.102v-.217a2 2 0 00-.655-1.48L7.207 7.37a.5.5 0 01.336-.87z"/><path fill-rule="evenodd" clip-rule="evenodd" d="M16 7.102V3.5h.25a.75.75 0 000-1.5H3.75a.75.75 0 000 1.5H4v3.602c0 .785.336 1.533.923 2.055l.948.843-.948.843A2.75 2.75 0 004 12.898V16.5h-.25a.75.75 0 000 1.5h12.5a.75.75 0 000-1.5H16v-3.602a2.75 2.75 0 00-.923-2.055L14.129 10l.948-.843A2.75 2.75 0 0016 7.102zM5.5 3.5h9v3.602c0 .357-.153.697-.42.934l-1.158 1.03a1.25 1.25 0 000 1.868l1.159 1.03c.266.237.419.577.419.934V16.5h-9v-3.602c0-.357.153-.697.42-.934l1.158-1.03a1.25 1.25 0 000-1.868L5.92 8.036a1.25 1.25 0 01-.42-.934V3.5z"/></svg>