<svg xmlns="http://www.w3.org/2000/svg" viewBox="0 0 20 20" width="1em" height="1em"><path d="M10.75 4.75a.75.75 0 00-1.5 0v.5a.75.75 0 001.5 0v-.5zM6.818 5.757a.75.75 0 00-1.06 1.061l.353.354A.75.75 0 107.17 6.11l-.353-.354zM14.243 6.818a.75.75 0 00-1.061-1.06l-.354.353a.75.75 0 101.061 1.06l.354-.353zM4.75 9.25a.75.75 0 000 1.5h.5a.75.75 0 000-1.5h-.5zM14.75 9.25a.75.75 0 000 1.5h.5a.75.75 0 000-1.5h-.5zM7.172 13.89a.75.75 0 00-1.061-1.062l-.354.354a.75.75 0 101.061 1.06l.354-.353zM13.89 12.828a.75.75 0 00-1.062 1.061l.354.354a.75.75 0 101.06-1.061l-.353-.354zM10.75 14.75a.75.75 0 00-1.5 0v.5a.75.75 0 001.5 0v-.5zM10 13a3 3 0 100-6 3 3 0 000 6z"/></svg>