<svg xmlns="http://www.w3.org/2000/svg" viewBox="0 0 20 20" width="1em" height="1em"><path fill-rule="evenodd" clip-rule="evenodd" d="M6 2a.75.75 0 01.695.468l3.25 8a.75.75 0 11-1.39.564L7.73 9H4.27l-.825 2.032a.75.75 0 01-1.39-.564l3.25-8A.75.75 0 016 2zM4.88 7.5h2.24L6 4.743 4.88 7.5zM14.75 5.083c.658 0 1.27.196 1.782.532A.75.75 0 0118 5.833v5a.75.75 0 01-1.468.219 3.25 3.25 0 11-1.782-5.968zm0 1.5a1.75 1.75 0 100 3.5 1.75 1.75 0 000-3.5z"/><path d="M2.75 13a.75.75 0 000 1.5h14.5a.75.75 0 000-1.5H2.75zM2.75 16.5a.75.75 0 000 1.5h11.5a.75.75 0 000-1.5H2.75z"/></svg>