<svg xmlns="http://www.w3.org/2000/svg" viewBox="0 0 20 20" width="1em" height="1em"><path d="M7.032 16.714c6.037 0 9.34-5.276 9.34-9.852 0-.15 0-.3-.01-.448A6.893 6.893 0 0018 4.622c-.6.28-1.235.463-1.885.544a3.45 3.45 0 001.443-1.915 6.376 6.376 0 01-2.085.84 3.237 3.237 0 00-1.862-1.045 3.138 3.138 0 00-2.082.364c-.637.36-1.143.93-1.442 1.625A3.64 3.64 0 009.88 7.25 8.943 8.943 0 016.132 6.2a9.432 9.432 0 01-3.018-2.568 3.63 3.63 0 00-.36 2.523c.189.86.68 1.61 1.376 2.1a3.13 3.13 0 01-1.49-.434v.044c0 .8.263 1.574.743 2.193a3.259 3.259 0 001.89 1.201c-.483.14-.99.16-1.482.06.21.688.619 1.29 1.168 1.72.55.432 1.214.67 1.9.684A6.372 6.372 0 012.78 15.21c-.26 0-.522-.017-.781-.05a8.945 8.945 0 005.032 1.553"/></svg>