<svg xmlns="http://www.w3.org/2000/svg" viewBox="0 0 20 20" width="1em" height="1em"><path fill-rule="evenodd" clip-rule="evenodd" d="M9 5.5a3.5 3.5 0 11-7 0 3.5 3.5 0 017 0zm-1.5 0a2 2 0 11-4 0 2 2 0 014 0zM13.378 2.55a1 1 0 011.744 0l2.79 4.96A1 1 0 0117.04 9h-5.58a1 1 0 01-.872-1.49l2.79-4.96zM12.315 7.5l1.935-3.44 1.935 3.44h-3.87zM13 11a2 2 0 00-2 2v3a2 2 0 002 2h3a2 2 0 002-2v-3a2 2 0 00-2-2h-3zm3 1.5h-3a.5.5 0 00-.5.5v3a.5.5 0 00.5.5h3a.5.5 0 00.5-.5v-3a.5.5 0 00-.5-.5z"/><path d="M3.53 11.47a.75.75 0 00-1.06 1.06l1.97 1.97-1.97 1.97a.75.75 0 101.06 1.06l1.97-1.97 1.97 1.97a.75.75 0 001.06-1.06L6.56 14.5l1.97-1.97a.75.75 0 10-1.06-1.06L5.5 13.44l-1.97-1.97z"/></svg>