<svg xmlns="http://www.w3.org/2000/svg" viewBox="0 0 20 20" width="1em" height="1em"><path fill-rule="evenodd" clip-rule="evenodd" d="M9 3a2 2 0 00-2 2v.25H3.855a2 2 0 100 1.5h1.562A7.738 7.738 0 002.25 13H2a1 1 0 00-1 1v2a1 1 0 001 1h2a1 1 0 001-1v-2a1 1 0 00-1-1h-.25a6.25 6.25 0 013.309-5.516A2 2 0 009 9h2a2 2 0 001.941-1.516A6.25 6.25 0 0116.25 13H16a1 1 0 00-1 1v2a1 1 0 001 1h2a1 1 0 001-1v-2a1 1 0 00-1-1h-.25a7.738 7.738 0 00-3.167-6.25h1.562a2 2 0 100-1.5H13V5a2 2 0 00-2-2H9zm2 1.5H9a.5.5 0 00-.5.5v2a.5.5 0 00.5.5h2a.5.5 0 00.5-.5V5a.5.5 0 00-.5-.5z"/></svg>